# xmcd CD database file
#
# Track frame offsets:
#	150
#	28594
#	59281
#	101370
#	134303
#	165863
#	187194
#	230905
#	269725
#
# Disc length: 3992 seconds
#
# Revision: 0
# Processed by: cddbd v1.5PL3 Copyright (c) Steve Scherf et al.
# Submitted via: CDex 1.50
#
DISCID=7c0f9609
DTITLE=Mike LeDonne - Then and Now
DYEAR=1999
DGENRE=Jazz
TTITLE0=Then and Now
TTITLE1=The Sorcerer
TTITLE2=Trane Song
TTITLE3=Schism
TTITLE4=Round Midnight
TTITLE5=Seeds
TTITLE6=Continuum
TTITLE7=Insight
TTITLE8=Little Millies Hat
EXTD=YEAR: 1999
EXTT0=
EXTT1=
EXTT2=
EXTT3=
EXTT4=
EXTT5=
EXTT6=
EXTT7=
EXTT8=
PLAYORDER=
